<svg width="66" height="66" viewBox="0 0 66 66" fill="none" xmlns="http://www.w3.org/2000/svg">
<g clip-path="url(#clip0_60_734)">
<path d="M14.1217 52.372H16.2174C16.2174 53.0007 16.2174 53.5945 16.2174 54.2057C16.2174 55.1139 16.6016 55.4981 17.4747 55.4981C19.4132 55.4981 21.3692 55.4981 23.3076 55.4981C24.2332 55.4981 24.5999 55.1139 24.5999 54.1708C24.5999 50.4161 24.5999 46.6614 24.5999 42.9067C24.5999 41.562 25.4731 40.3919 26.7131 39.9553C27.9704 39.5187 29.3501 39.9204 30.1883 40.9682C30.6948 41.6144 30.8869 42.3479 30.8869 43.1687C30.8869 49.5429 30.8869 55.9172 30.8869 62.3089C30.8869 63.3917 31.2012 63.8806 31.9172 63.8981C32.6507 63.9156 32.9825 63.3917 32.9825 62.2915C32.9825 58.2049 32.9825 54.1184 32.9825 50.0319V49.246H37.1389V47.1679H41.3651V45.8755C41.3651 44.3911 41.3651 42.9067 41.3651 41.4223C41.3651 39.6934 41.7842 39.1345 43.4433 38.663C43.4433 37.2135 43.4782 35.7466 43.4258 34.2796C43.4258 33.8256 43.2163 33.3366 43.0067 32.9175C42.3605 31.5727 41.6969 30.263 41.0158 28.9357C40.5269 27.9752 40.2998 26.9798 40.2998 25.9145C40.3173 22.6139 40.2998 19.3132 40.2998 16.0126C40.2998 13.8645 41.5747 12.5897 43.7227 12.5722C44.6483 12.5722 45.5913 12.5722 46.6042 12.5722C46.6042 11.8562 46.6042 11.21 46.6042 10.5639C46.6042 9.3065 47.1456 8.31106 48.2633 7.7173C49.346 7.14099 50.4637 7.19338 51.4766 7.89193C51.7735 8.1015 51.9481 8.03164 52.2276 7.87447C53.3627 7.15846 54.5328 7.15846 55.6679 7.89193C55.9648 8.08403 56.1394 8.04911 56.4189 7.89193C57.554 7.15846 58.7241 7.15846 59.8592 7.89193C60.1386 8.08403 60.3133 8.08403 60.6101 7.89193C61.6405 7.21085 62.7407 7.15846 63.8409 7.73476C64.9237 8.32853 65.4825 9.28903 65.4825 10.529C65.4825 15.7681 65.5175 21.0072 65.4476 26.2463C65.4476 27.1195 65.1158 28.0451 64.7665 28.8659C64.1727 30.2455 63.4043 31.5553 62.7931 32.9175C62.5312 33.4938 62.3914 34.1574 62.3565 34.8035C62.2867 36.0784 62.3391 37.3707 62.3391 38.6456C63.9981 39.0996 64.4347 39.6759 64.4347 41.4048C64.4347 47.3076 64.4347 53.1928 64.4347 59.0956C64.4347 60.8245 63.9981 61.4008 62.3391 61.8549V65.9239H43.4957V61.8898C43.0591 61.6977 42.6225 61.5929 42.2732 61.3659C41.6445 60.9467 41.3651 60.3355 41.3826 59.5671C41.3826 57.5413 41.3826 55.5155 41.3826 53.4024H37.2088V51.3068H35.0956C35.0956 51.5338 35.0956 51.7608 35.0956 51.9879C35.0956 55.5854 35.0956 59.2004 35.0956 62.7979C35.0956 64.1775 34.205 65.3651 32.9476 65.7842C31.6553 66.2033 30.2582 65.7842 29.4374 64.6665C28.9659 64.0204 28.8087 63.3043 28.8087 62.5185C28.8087 56.1617 28.8087 49.8049 28.8087 43.4481C28.8087 42.3304 28.4769 41.824 27.7434 41.8414C27.0274 41.8414 26.7131 42.3479 26.7131 43.4306C26.7131 46.9932 26.7131 50.5558 26.7131 54.1184C26.7131 56.3014 25.4207 57.5762 23.2378 57.5762C21.3168 57.5762 19.3957 57.5762 17.4747 57.5762C15.4664 57.5762 14.1392 56.249 14.1392 54.2581C14.1392 53.6469 14.1392 53.0357 14.1392 52.3546L14.1217 52.372ZM60.2434 38.698C60.2434 37.4755 60.2783 36.2705 60.2434 35.083C60.2085 33.878 60.4879 32.7603 61.0467 31.695C61.7104 30.4376 62.3391 29.1628 62.9503 27.8879C63.1249 27.5212 63.3345 27.1195 63.352 26.7178C63.4043 25.1112 63.3694 23.487 63.3694 21.8455C62.3216 22.1249 61.3611 22.0026 60.4704 21.3914C60.3482 21.3041 60.0688 21.3739 59.9116 21.4613C58.7241 22.1773 57.5715 22.1773 56.3839 21.4613C56.2093 21.3565 55.8775 21.3565 55.7203 21.4613C54.5328 22.1773 53.3802 22.1773 52.2101 21.4613C52.0704 21.3739 51.8259 21.2866 51.7036 21.339C51.3194 21.5136 50.9527 21.7407 50.5685 21.9677C52.0704 24.1856 52.8912 26.5956 52.9086 29.285H50.8305C50.7606 26.6131 49.9398 24.238 48.141 22.317C47.2155 21.3215 46.0279 20.5706 44.9626 19.7149C44.8055 19.5926 44.5435 19.418 44.5435 19.2783C44.5086 18.4575 44.5261 17.6367 44.5261 16.7635C44.8753 16.7635 45.1373 16.7635 45.3992 16.7635C46.8662 16.7635 48.3331 16.781 49.7826 16.7635C51.0051 16.7286 51.8084 15.9078 51.8084 14.7377C51.756 14.7377 51.6862 14.6853 51.6338 14.6853C48.9444 14.6853 46.255 14.6853 43.583 14.6853C42.7797 14.6853 42.4479 15.1045 42.4479 15.9602C42.4479 18.3702 42.5701 20.7802 42.4129 23.1727C42.2383 25.8097 42.7273 28.2372 44.1593 30.4551C45.3468 32.3062 45.7834 34.332 45.5913 36.515C45.5215 37.2485 45.5913 37.9819 45.5913 38.7154H60.2609L60.2434 38.698ZM53.9739 51.3417H43.5132V55.4457H58.1128V44.9849H56.1045V42.9416H60.2259V57.5762H43.5306V59.6195H62.3216V40.846H43.5481V42.9242H53.939V45.0373H43.5481V49.1587H54.0263V47.1504H56.0346V53.3675H54.0089V51.3417H53.9739ZM60.2259 61.8374H45.6263V63.8457H60.2259V61.8374ZM57.0999 14.6504C57.0999 15.9602 57.0999 17.27 57.0999 18.5797C57.0999 19.418 57.4841 19.8721 58.1303 19.8895C58.7939 19.8895 59.1781 19.4355 59.1781 18.5972C59.1781 15.9776 59.1781 13.3581 59.1781 10.7385C59.1781 9.91773 58.7939 9.42874 58.1478 9.42874C57.5016 9.42874 57.0999 9.90026 57.0999 10.7211C57.0999 12.0308 57.0999 13.3406 57.0999 14.6504ZM61.2912 14.6504C61.2912 15.9602 61.2912 17.27 61.2912 18.5797C61.2912 19.418 61.6754 19.8721 62.3216 19.8895C62.9852 19.8895 63.3694 19.4355 63.3694 18.5972C63.3694 15.9776 63.3694 13.3581 63.3694 10.7385C63.3694 9.91773 62.9852 9.42874 62.3391 9.42874C61.6929 9.42874 61.2912 9.90026 61.2912 10.7211C61.2912 12.0308 61.2912 13.3406 61.2912 14.6504ZM55.0043 14.6679C55.0043 13.2882 55.0043 11.9086 55.0043 10.5464C55.0043 9.8828 54.5677 9.44621 53.9739 9.42874C53.3802 9.42874 52.9086 9.86534 52.9261 10.529C52.9436 11.6117 52.734 12.6595 53.6421 13.6724C54.4105 14.5456 53.9914 15.7506 53.3976 16.6762C53.0134 17.2874 52.8912 17.8812 52.9086 18.5797C52.9436 19.418 53.2928 19.8721 53.9565 19.8895C54.6201 19.8895 55.0043 19.4355 55.0218 18.6147C55.0218 17.3049 55.0218 15.9951 55.0218 14.6853L55.0043 14.6679ZM50.7955 12.5373C50.7955 11.7863 50.8305 11.0703 50.7955 10.3543C50.7431 9.77802 50.3589 9.46367 49.7826 9.44621C49.2413 9.44621 48.8221 9.74309 48.7697 10.267C48.6999 11.0179 48.7523 11.7689 48.7523 12.5198H50.813L50.7955 12.5373ZM39.3044 51.2544H41.3477V49.246H39.3044V51.2544ZM48.6999 18.8941C48.8745 19.6101 49.2413 19.9419 49.8874 19.8721C50.4812 19.8022 50.7781 19.418 50.7955 18.7718C50.097 18.8068 49.4334 18.8417 48.6999 18.8941Z" fill="#1F1F1F"/>
<path d="M16.2348 38.698V41.824H14.1566V38.7504H12.0435V34.5241C11.7466 34.5241 11.5021 34.5241 11.2751 34.5241C8.77781 34.5241 6.29796 34.5241 3.80064 34.5241C1.84471 34.5241 0.5 33.1969 0.5 31.241C0.5 22.2297 0.5 13.2359 0.5 4.24204C0.5 2.32103 1.84471 0.976318 3.76572 0.976318C11.3624 0.976318 18.9592 0.976318 26.5559 0.976318C28.5118 0.976318 29.8391 2.30356 29.8565 4.27696C29.8565 13.2533 29.8565 22.2297 29.8565 31.206C29.8565 33.2144 28.5293 34.5241 26.521 34.5241C24.0586 34.5241 21.5787 34.5241 19.1163 34.5241C18.8718 34.5241 18.6448 34.5241 18.3305 34.5241V38.698H16.2174H16.2348ZM23.5172 24.0459V15.6633C21.1596 15.6633 18.8544 15.6633 16.5317 15.6633C16.0427 15.6633 15.8506 15.838 15.7109 16.2745C15.2918 17.6367 14.8203 18.9989 14.3138 20.5008C13.2485 18.3702 12.2356 16.3619 11.1878 14.2662C10.9957 14.8076 10.8211 15.2442 10.6464 15.7157H6.82187V27.2243C7.99194 27.2243 9.12708 27.2243 10.2622 27.2243C10.4718 27.2243 10.6988 27.0671 10.856 26.91C11.572 26.2114 12.3055 25.5129 12.9866 24.7794C13.4406 24.2729 13.9296 24.0634 14.6282 24.0808C17.5795 24.1158 20.5134 24.0983 23.4997 24.0983L23.5172 24.0459ZM27.7609 24.011C27.7609 23.749 27.7609 23.5395 27.7609 23.3124C27.7609 17.0604 27.7609 10.8259 27.7609 4.57385C27.7609 3.36885 27.464 3.07197 26.259 3.07197C18.8718 3.07197 11.5021 3.07197 4.11499 3.07197C2.90999 3.07197 2.61311 3.36885 2.61311 4.57385C2.61311 11.8737 2.61311 19.1561 2.61311 26.4559V27.1544H4.70876V5.22H25.6827V24.011H27.7609ZM27.7609 26.1939C27.6212 26.1765 27.5688 26.1416 27.4989 26.1416C23.3076 26.1416 19.1163 26.1416 14.925 26.1416C14.698 26.1416 14.4361 26.2987 14.2614 26.4559C13.4232 27.2592 12.6373 28.0975 11.7816 28.8834C11.5545 29.0929 11.1878 29.2501 10.8909 29.2501C8.95245 29.285 7.01397 29.2501 5.05803 29.2501C4.2547 29.2501 3.45137 29.2501 2.59565 29.2501C2.59565 29.8439 2.59565 30.3503 2.59565 30.8742C2.59565 32.0792 2.89253 32.3936 4.09753 32.3936C8.39361 32.3936 12.6897 32.3936 17.0032 32.3936C20.1642 32.3936 23.3251 32.3936 26.5035 32.3936C27.3068 32.3936 27.7609 32.0268 27.7609 31.2934C27.7783 29.5994 27.7609 27.8879 27.7609 26.1416V26.1939ZM6.83933 7.29819V13.5677C7.46803 13.5677 8.06179 13.5327 8.6381 13.5677C9.07469 13.6026 9.24933 13.4105 9.37157 13.0263C9.80817 11.6292 10.2797 10.2496 10.7861 8.74768C11.8514 10.8783 12.8643 12.8866 13.9121 14.9822C14.1042 14.4409 14.2789 14.0043 14.4535 13.5502H23.5172V7.29819H6.83933ZM14.1566 36.5849H16.1824V34.5765H14.1566V36.5849Z" fill="#1F1F1F"/>
<path d="M16.1824 46.0328H14.1741V44.007H16.1824V46.0328Z" fill="#1F1F1F"/>
<path d="M16.165 50.224H14.1566V48.1808H16.165V50.224Z" fill="#1F1F1F"/>
<path d="M15.2219 28.2722H17.2303V30.3154H15.2219V28.2722Z" fill="#1F1F1F"/>
<path d="M21.439 28.2896V30.2979H19.3958V28.2896H21.439Z" fill="#1F1F1F"/>
<path d="M25.6303 28.2896V30.2979H23.5871V28.2896H25.6303Z" fill="#1F1F1F"/>
</g>
<defs>
<clipPath id="clip0_60_734">
<rect width="65" height="65" fill="white" transform="translate(0.5 0.976318)"/>
</clipPath>
</defs>
</svg>
