<svg width="59" height="66" viewBox="0 0 59 66" fill="none" xmlns="http://www.w3.org/2000/svg">
<g clip-path="url(#clip0_60_769)">
<path d="M20.4615 65.9763C19.1403 65.6202 17.8192 65.264 16.6844 64.4331C16.2609 64.1279 15.8036 63.8396 15.4141 63.5004C14.2792 62.5338 12.975 62.1099 11.4845 62.1946C11.0611 62.2116 10.6377 62.1946 10.2481 62.1946C10.1803 62.2625 10.1465 62.2794 10.1295 62.3134C9.87546 63.7378 9.6214 63.9583 8.1817 63.9583C6.03063 63.9583 3.87956 63.9583 1.71155 63.9583C0.593668 63.9583 0.119415 63.4835 0.119415 62.3812C0.119415 59.3118 0.119415 56.2424 0.119415 53.173C0.119415 52.359 0.458167 51.9181 1.05098 51.9181C1.66074 51.9181 2.01642 52.376 2.01642 53.2239C2.01642 55.8863 2.01642 58.5487 2.01642 61.228C2.01642 61.4824 2.01642 61.7368 2.01642 62.0251H8.13089V39.861H2.06724C2.06724 40.0814 2.03336 40.3019 2.03336 40.5223C2.03336 43.0152 2.03336 45.508 2.03336 48.0178C2.03336 48.2721 2.03336 48.5265 1.96561 48.7639C1.84705 49.2387 1.47442 49.4761 1.01711 49.4422C0.559792 49.4083 0.237978 49.137 0.15329 48.6452C0.15329 48.6113 0.15329 48.5604 0.15329 48.5265C0.15329 45.4232 0.15329 42.3029 0.15329 39.1996C0.15329 38.4534 0.712231 37.9447 1.47442 37.9277C3.8965 37.9277 6.33551 37.9277 8.75758 37.9277C9.51977 37.9277 9.99403 38.4026 10.0957 39.1826C10.1126 39.3183 10.1295 39.4709 10.1465 39.6405C12.7718 39.844 15.2786 39.5727 17.5482 38.216C19.1234 37.2664 19.784 35.6723 20.1905 33.9765C20.3768 33.2134 20.4615 32.4334 20.58 31.6703C20.7663 30.4662 21.2745 29.4827 22.4601 29.0248C23.6288 28.55 24.7297 28.8043 25.6613 29.6014C28.5746 32.1451 29.4722 35.3671 28.6762 39.1148C28.6423 39.2844 28.6084 39.437 28.5407 39.6744C28.7778 39.6744 28.9811 39.7083 29.1843 39.7083C33.1308 39.7083 37.0942 39.7083 41.0406 39.7083C41.5657 39.7083 41.7181 39.5557 41.7181 39.03C41.6842 37.5886 41.7181 36.1641 41.7181 34.7227C40.9729 34.604 40.2784 34.5362 39.6009 34.4005C35.2141 33.4169 32.0468 29.5335 32.0298 25.0397C31.9959 18.9687 32.0129 12.8977 32.0298 6.82679C32.0298 3.50302 34.5535 1.01019 37.8564 1.01019C42.8191 1.01019 47.7818 1.01019 52.7445 1.01019C55.9965 1.01019 58.4863 3.41823 58.5202 6.67416C58.571 12.8638 58.588 19.0705 58.5202 25.2601C58.4525 30.3136 54.3536 34.4005 49.3231 34.6379C49.2045 34.6379 49.069 34.6549 48.9166 34.6718V39.6744C49.0352 39.6914 49.1707 39.7253 49.3062 39.7592C51.4742 40.2001 52.8292 41.9129 52.6598 43.9987C52.4904 46.1354 50.8814 47.6447 48.6456 47.6956C47.3414 47.7295 46.0372 47.6956 44.6653 47.6956C45.6307 50.1036 45.1903 52.0368 42.9038 53.4443C43.5304 54.4788 43.8523 55.581 43.5643 56.802C43.2764 58.023 42.5481 58.9218 41.4302 59.5153C41.6334 59.9901 41.8875 60.431 42.023 60.9058C42.6497 63.1782 41.3624 65.3319 39.042 65.8915C38.9404 65.9084 38.8557 65.9593 38.754 66.0102H20.4953L20.4615 65.9763ZM27.0841 52.7999C26.9655 52.6812 26.8808 52.5795 26.7961 52.4947C25.746 51.2906 25.4919 49.9001 25.9831 48.4078C26.4912 46.8985 27.6091 46.0845 29.1504 45.8302C29.5569 45.7623 29.9973 45.7793 30.4208 45.7793C36.315 45.7793 42.2093 45.7793 48.1036 45.7793C48.4593 45.7793 48.8319 45.7623 49.1707 45.6776C50.1361 45.4571 50.7289 44.711 50.7628 43.7274C50.7967 42.7269 50.1869 41.9298 49.2215 41.6585C48.7811 41.5398 48.4762 41.5737 48.1544 42.0146C46.7486 43.9478 43.9369 43.9818 42.4973 42.0825C42.1754 41.6585 41.8706 41.5737 41.3963 41.5737C36.7215 41.5737 32.0637 41.5737 27.3889 41.5737C26.3049 41.5737 25.9154 40.9463 26.3388 39.9458C26.3896 39.827 26.4404 39.7253 26.4912 39.6066C27.7107 36.6559 26.8639 32.9251 24.5603 31.0937C24.1538 30.7715 23.7304 30.551 23.2223 30.7376C22.6972 30.9411 22.5617 31.3989 22.494 31.9077C22.3415 32.8404 22.223 33.79 21.9858 34.7057C21.41 36.9611 20.326 38.8944 18.2088 40.0305C16.3456 41.0141 14.33 41.5568 12.1959 41.5737C11.5184 41.5737 10.8578 41.5737 10.1465 41.5737V60.2953C10.7054 60.2953 11.2305 60.2784 11.7386 60.2953C12.3653 60.3293 13.0089 60.3632 13.6187 60.4649C14.889 60.7023 15.8883 61.4315 16.8707 62.2116C17.87 63.0086 18.9371 63.7717 20.2243 63.8904C22.206 64.06 24.2047 64.06 26.288 64.1279C25.4072 62.1268 25.5935 60.4141 27.0502 58.9218C25.1701 56.9377 25.4242 54.4279 27.0502 52.783L27.0841 52.7999ZM48.8658 32.7216C49.2215 32.7216 49.4925 32.7216 49.7635 32.6708C53.7438 32.1281 56.6063 28.9231 56.6232 24.904C56.6571 18.8839 56.6401 12.8469 56.6232 6.82679C56.6232 4.48658 54.9803 2.89253 52.6598 2.89253C47.731 2.89253 42.8191 2.89253 37.8902 2.89253C35.5528 2.89253 33.9099 4.53746 33.9099 6.89462C33.9099 12.8977 33.9099 18.9009 33.9099 24.921C33.9099 28.1599 35.8916 31.0258 38.8895 32.2129C39.7703 32.5521 40.6849 32.7895 41.6842 32.7216C41.6842 31.6872 41.6673 30.7206 41.6842 29.737C41.7181 28.6517 42.3109 28.0582 43.3949 28.0582C44.6144 28.0582 45.8509 28.0582 47.0704 28.0582C48.2222 28.0582 48.8319 28.6687 48.8319 29.8218C48.8319 30.7715 48.8319 31.7211 48.8319 32.7556L48.8658 32.7216ZM35.4004 47.6956C33.5711 47.6956 31.7249 47.6956 29.8957 47.6956C28.5237 47.6956 27.6769 48.4926 27.6599 49.7475C27.6599 51.0193 28.5068 51.8503 29.8957 51.8842C30.8103 51.9011 31.708 51.8842 32.6226 51.8842C35.3835 51.8842 38.1612 51.8842 40.9221 51.8842C42.0907 51.8842 42.9207 51.3076 43.1578 50.3749C43.5135 48.9674 42.6497 47.7295 41.1761 47.7125C39.2622 47.6786 37.3313 47.7125 35.4173 47.7125L35.4004 47.6956ZM34.689 53.7835C33.063 53.7835 31.437 53.7835 29.811 53.7835C28.5237 53.7835 27.6938 54.5975 27.6599 55.7845C27.6261 57.0225 28.4391 57.9382 29.7094 57.9551C33.0291 57.9891 36.332 57.9891 39.6517 57.9551C40.6341 57.9551 41.3624 57.3616 41.6165 56.5307C42.0569 55.0892 41.1422 53.8174 39.6179 53.7835C37.9749 53.7496 36.332 53.7835 34.6721 53.7835H34.689ZM33.9438 59.8884C32.521 59.8884 31.1152 59.8544 29.6924 59.8884C28.456 59.9223 27.6599 60.7702 27.6599 61.9403C27.6599 63.1273 28.4391 64.0261 29.6586 64.0431C32.5041 64.0939 35.3665 64.077 38.212 64.0431C39.0928 64.0431 39.7872 63.5852 40.1091 62.7034C40.6172 61.2789 39.6856 59.9223 38.1443 59.8884C36.7554 59.8544 35.3496 59.8884 33.9607 59.8884H33.9438ZM43.5982 29.9575C43.5982 30.2288 43.5982 30.4323 43.5982 30.6528C43.5982 33.5865 43.5982 36.5372 43.5982 39.4709C43.5982 39.7083 43.5982 39.9458 43.6321 40.1662C43.7337 40.8276 44.1233 41.2854 44.7499 41.4889C45.8848 41.862 46.9349 41.048 46.9518 39.7762C46.9518 36.6389 46.9518 33.5187 46.9518 30.3814C46.9518 30.2458 46.918 30.1101 46.8841 29.9575H43.5813H43.5982Z" fill="white"/>
<path d="M51.6266 13.6778V7.94597H38.9742V13.6778C40.1937 13.6778 41.3963 13.6778 42.5819 13.6778C42.8191 13.6778 43.0562 13.6608 43.2764 13.6778C43.8184 13.7456 44.1233 14.0678 44.1402 14.6105C44.1402 15.1531 43.8353 15.5431 43.3103 15.5601C41.6673 15.594 40.0074 15.611 38.3645 15.5601C37.6192 15.5262 37.0434 14.8818 37.0434 14.1017C37.0095 11.8972 37.0095 9.7096 37.0434 7.50506C37.0434 6.69108 37.6362 6.14842 38.4492 6.04667C38.6524 6.01276 38.8726 6.01276 39.0759 6.01276C43.2256 6.01276 47.3583 6.01276 51.508 6.01276C52.9816 6.01276 53.5406 6.57237 53.5406 8.03076C53.5406 9.9131 53.5406 11.7954 53.5406 13.6778C53.5406 14.9666 52.9308 15.594 51.6435 15.594C50.441 15.594 49.2384 15.594 48.0358 15.594C47.3075 15.594 46.8672 15.204 46.901 14.6105C46.918 14.0508 47.3414 13.6947 48.0358 13.6947C49.2215 13.6947 50.3902 13.6947 51.6266 13.6947V13.6778Z" fill="white"/>
<path d="M50.0514 26.108C48.1544 26.108 46.5792 24.48 46.63 22.5977C46.6639 20.6984 48.2052 19.1891 50.1022 19.1891C52.0162 19.1891 53.5744 20.7662 53.5575 22.6655C53.5575 24.5648 51.9653 26.125 50.0683 26.108H50.0514ZM50.1192 24.2087C50.966 24.2087 51.6774 23.4456 51.6435 22.5977C51.6097 21.7668 50.8983 21.0884 50.0683 21.1054C49.2384 21.1054 48.544 21.8176 48.544 22.6486C48.544 23.5134 49.2723 24.2257 50.1361 24.2087H50.1192Z" fill="white"/>
<path d="M43.92 22.6655C43.92 24.5818 42.3448 26.125 40.4478 26.108C38.5339 26.108 37.0095 24.5309 37.0264 22.5977C37.0434 20.6984 38.5847 19.1891 40.4647 19.1891C42.3787 19.1891 43.92 20.7493 43.92 22.6655ZM40.4478 24.2087C41.2777 24.2087 41.9891 23.5474 42.0061 22.6995C42.0399 21.8176 41.3624 21.1224 40.4817 21.1054C39.6348 21.1054 38.9404 21.7498 38.9234 22.5977C38.9065 23.4795 39.5671 24.1918 40.4478 24.2087Z" fill="white"/>
</g>
<defs>
<clipPath id="clip0_60_769">
<rect width="58.4177" height="65" fill="white" transform="translate(0.136353 0.976257)"/>
</clipPath>
</defs>
</svg>
