<svg width="77" height="66" viewBox="0 0 77 66" fill="none" xmlns="http://www.w3.org/2000/svg">
<g clip-path="url(#clip0_60_763)">
<path d="M75.8534 24.358C75.6208 25.6447 75.5045 26.9509 75.1168 28.1987C74.4965 30.2067 73.7405 32.1758 72.9845 34.1449C72.6356 35.0807 71.899 35.4511 70.9298 35.4511C67.2081 35.4511 63.4863 35.4511 59.7646 35.4511C59.28 35.4511 58.9698 35.5876 58.6984 35.997C57.8843 37.2252 57.0314 38.434 56.1785 39.6427C55.1318 41.1244 53.5229 41.0074 52.67 39.3893C51.6232 37.4007 50.5959 35.3926 49.5491 33.3846C49.4328 33.1701 49.3165 32.9751 49.1421 32.6632C48.987 32.9946 48.8513 33.2286 48.735 33.482C46.8548 37.5372 44.9745 41.5728 43.0942 45.628C42.7841 46.3103 42.3576 46.8367 41.6017 46.9927C40.5355 47.2071 39.6439 46.5833 39.3725 45.4135C38.6553 42.1967 37.9575 38.9604 37.2402 35.7436C36.6781 33.2091 36.1353 30.6746 35.5344 27.9257C35.3212 28.3351 35.1855 28.5691 35.0886 28.8225C33.441 32.3708 31.7933 35.8995 30.1457 39.4478C29.7967 40.2081 29.254 40.676 28.4205 40.6955C27.6063 40.715 27.0054 40.3056 26.6371 39.5648C26.5596 39.3893 26.4627 39.2138 26.3658 39.0579C25.2609 36.9523 24.1753 34.8467 23.0705 32.7412C22.9541 32.5267 22.8378 32.3318 22.6828 32.0393C22.1206 32.8582 21.5585 33.5795 21.0739 34.3593C20.5505 35.1782 19.8527 35.5291 18.8835 35.5096C15.782 35.4901 12.7 35.5096 9.44343 35.5096C9.73419 35.958 9.94741 36.3089 10.1994 36.6599C14.5414 42.957 19.9108 48.2404 25.8618 52.9779C29.758 56.0778 33.848 58.8657 38.1707 61.3416C38.5584 61.5561 38.8297 61.5756 39.2174 61.3416C48.8125 55.7268 57.4385 48.9618 64.5137 40.3056C64.8626 39.8767 65.386 39.5063 65.8899 39.3308C66.6459 39.0774 67.4213 39.5063 67.809 40.1496C68.2354 40.832 68.216 41.6508 67.6733 42.3332C66.5684 43.6784 65.4635 45.0431 64.2811 46.3103C57.2253 53.9137 49.1033 60.1134 40.0703 65.1628C39.1205 65.6892 38.3064 65.6892 37.3565 65.1628C26.0944 58.7877 16.1116 50.8724 8.29976 40.4226C6.96226 38.6289 5.8186 36.6599 4.69432 34.7103C3.78327 33.1311 4.67494 31.7079 6.49704 31.7079C10.1994 31.7079 13.9018 31.7079 17.6041 31.7079C18.1663 31.7079 18.4764 31.5324 18.7672 31.084C19.5619 29.8753 20.4148 28.686 21.2483 27.4968C22.2757 26.0346 23.8846 26.1321 24.7181 27.7113C25.7842 29.7193 26.831 31.7469 27.8777 33.7745C27.994 33.9889 28.1103 34.1839 28.2848 34.4958C28.4399 34.1839 28.5755 33.9304 28.6918 33.677C30.5721 29.6219 32.4524 25.5862 34.3326 21.5311C34.6622 20.8292 35.0692 20.2833 35.8834 20.1663C37.0076 20.0104 37.8024 20.6342 38.0931 21.882C38.791 25.0598 39.4694 28.2376 40.1672 31.4155C40.6906 33.833 41.2334 36.2505 41.7567 38.6679C41.7955 38.8044 41.8343 38.9214 41.9118 39.1748C42.0863 38.8239 42.2026 38.6095 42.3189 38.3755C43.9665 34.8273 45.6142 31.2985 47.2424 27.7502C47.6107 26.9704 48.1729 26.483 49.0258 26.483C49.8593 26.483 50.4408 26.9119 50.7897 27.6723C50.8673 27.8282 50.9448 27.9647 51.0223 28.1207C52.1272 30.2262 53.2127 32.3318 54.3176 34.4373C54.4339 34.6518 54.5502 34.8662 54.7053 35.1587C55.2675 34.3399 55.8296 33.6185 56.3142 32.8387C56.8376 32.0198 57.516 31.6689 58.4852 31.6884C62.11 31.7274 65.7349 31.6884 69.3597 31.6884C69.6117 31.6884 70.0381 31.5519 70.1157 31.357C72.2867 26.2491 72.8876 21.0437 70.736 15.7798C66.4133 5.21301 53.3872 1.9572 44.8388 9.28765C43.2687 10.6329 41.8537 12.1145 40.3611 13.5377C39.1399 14.688 38.2482 14.688 37.0464 13.5377C35.8252 12.368 34.604 11.1982 33.3634 10.009C24.8538 1.80123 11.1298 4.74511 6.6715 15.7213C5.39215 18.8796 5.06262 22.1549 5.58599 25.5277C5.66353 25.9956 5.68291 26.5025 5.58599 26.9704C5.39215 27.7502 4.57801 28.2961 3.78327 28.2766C2.93037 28.2376 2.13562 27.6918 2.0387 26.8144C1.84486 24.9623 1.55409 23.0712 1.6704 21.2386C2.05808 14.883 4.77186 9.65807 9.77296 5.7394C17.5266 -0.343319 28.7112 0.261053 35.8252 7.08461C36.775 8.00092 37.7442 8.93672 38.7522 9.91151C39.5469 9.15117 40.3029 8.44932 41.0201 7.70848C43.5788 5.11553 46.5446 3.26342 50.0725 2.28862C59.939 -0.440799 70.1351 4.51116 74.1476 13.9862C75.0005 15.9942 75.5626 18.0608 75.7565 20.2443C75.7565 20.4003 75.834 20.5758 75.8728 20.7317V24.3775L75.8534 24.358Z" fill="#1F1F1F"/>
</g>
<defs>
<clipPath id="clip0_60_763">
<rect width="75.8333" height="65" fill="white" transform="translate(0.738037 0.976318)"/>
</clipPath>
</defs>
</svg>
