<svg width="61" height="61" viewBox="0 0 61 61" fill="none" xmlns="http://www.w3.org/2000/svg">
<g clip-path="url(#clip0_60_538)">
<path d="M25.6931 0.27002C26.3663 0.27002 27.024 0.27002 27.6816 0.27002C28.5741 0.551783 29.4822 0.833547 30.3903 1.11531C30.4686 1.14662 30.5782 1.11531 30.6722 1.09966C31.549 0.817893 32.4258 0.551783 33.3183 0.27002C33.9759 0.27002 34.6492 0.27002 35.3068 0.27002C36.6221 0.53613 37.906 0.880507 39.049 1.63188C39.1273 1.67884 39.2995 1.67884 39.3622 1.63188C40.4895 0.896161 41.7578 0.551783 43.0417 0.27002C43.6993 0.27002 44.3726 0.27002 45.0302 0.27002C45.1242 0.301327 45.2025 0.348287 45.2964 0.363941C47.739 0.739626 49.6649 1.94495 51.1367 3.90164C51.2776 4.10514 51.5281 4.27732 51.763 4.33994C55.4425 5.32611 57.7129 7.65849 58.3862 11.3997C58.6054 12.5894 58.9029 13.6381 59.4822 14.7026C59.9832 15.6105 60.1711 16.7062 60.4843 17.7237V19.6021C60.453 19.7117 60.406 19.8213 60.3747 19.9309C59.9832 22.3728 58.7776 24.2982 56.8047 25.7696C56.6169 25.9105 56.4446 26.1766 56.382 26.4114C55.6461 29.2917 53.9237 31.3423 51.1993 32.485C50.4321 32.7981 49.6022 32.9703 48.788 33.2051C49.0542 34.8487 48.6315 36.3045 47.4571 37.5254C46.2515 38.7777 44.7171 39.0595 43.073 38.9499C42.8851 40.1239 42.7285 39.8108 43.6993 40.3274C46.549 41.8302 49.4144 43.2859 52.2484 44.8043C55.6461 46.6358 57.3058 50.4083 56.3663 54.0869C55.4425 57.7185 52.1701 60.2387 48.3496 60.2387C36.4342 60.2387 24.5187 60.2387 12.6189 60.2387C11.8674 60.2387 11.1002 60.1291 10.3642 59.9256C7.06049 59.0177 4.77448 56.2784 4.38304 52.8033C4.02291 49.5943 5.76091 46.3697 8.78283 44.773C11.6169 43.2703 14.4822 41.7832 17.3319 40.2961C18.1461 39.8735 18.1461 39.8735 17.8329 38.9343C16.2045 39.0751 14.7014 38.7464 13.4958 37.5098C12.2901 36.2888 11.9144 34.7861 12.1649 33.0955C11.9926 33.0642 11.883 33.0642 11.7578 33.0329C8.29744 32.532 5.36947 29.8552 4.57093 26.4897C4.49264 26.1923 4.28909 25.8479 4.03857 25.6601C0.202452 22.8268 -0.658717 17.4419 2.144 13.5442C2.31623 13.2938 2.42583 12.9494 2.42583 12.6363C2.59807 8.56639 5.29118 5.27915 9.20558 4.33994C9.44045 4.27732 9.69097 4.10514 9.84755 3.90164C10.6304 2.85285 11.5386 1.92929 12.7285 1.38142C13.762 0.911814 14.8893 0.630051 15.9697 0.27002H17.9582C19.2421 0.567437 20.5104 0.896161 21.6377 1.63188C21.716 1.67884 21.8726 1.67884 21.9509 1.63188C23.0939 0.880507 24.3778 0.53613 25.6931 0.27002ZM21.81 4.1834C21.6691 4.08948 21.5751 4.02687 21.4812 3.9486C18.1304 1.00574 13.0574 1.97625 10.9749 5.76441C10.8809 5.9366 10.5991 6.09313 10.3799 6.12444C6.70036 6.62536 4.19515 9.64649 4.36738 13.3407C4.36738 13.6225 4.28909 13.9669 4.11686 14.1704C1.29849 17.6141 2.08137 22.2476 5.90183 24.5487C6.19932 24.7365 6.32458 24.9243 6.37155 25.2844C6.74734 28.3994 9.20558 30.8257 12.2901 31.1858C13.2139 31.2953 14.0438 30.5909 14.0438 29.6674C14.0438 28.462 14.0125 27.2411 14.0751 26.0357C14.2004 22.8424 16.6273 20.1813 19.7901 19.6804C20.0407 19.6491 20.3225 19.4456 20.4634 19.2421C22.0918 16.9723 24.2839 15.7827 27.0709 15.7357C29.5448 15.7044 32.0344 15.6731 34.5083 15.7357C39.2056 15.8766 42.7912 17.9898 45.2338 21.9971C46.6586 24.3295 47.0501 26.9123 46.9404 29.5891C46.9091 30.5909 47.739 31.2953 48.7411 31.1544C51.8413 30.7318 54.2212 28.3525 54.6127 25.2687C54.6597 24.893 54.8162 24.6895 55.1294 24.5017C58.8716 22.2476 59.6544 17.5828 56.8987 14.2017C56.7108 13.9669 56.6012 13.5755 56.6169 13.2625C56.7734 9.69345 54.3465 6.68797 50.8235 6.15575C50.3538 6.07748 50.072 5.92095 49.8371 5.51395C48.3183 2.97808 45.4999 1.77276 42.6033 2.36759C41.3037 2.6337 40.2233 3.30681 39.2212 4.16775C39.0647 4.04252 38.9237 3.9486 38.7828 3.83903C36.2933 1.89799 33.6471 1.67884 30.8601 3.16592C30.6565 3.2755 30.2807 3.25984 30.0772 3.13462C28.5427 2.28933 26.93 2.02322 25.2077 2.35194C23.9081 2.6024 22.8121 3.2755 21.7943 4.16775L21.81 4.1834ZM22.0605 27.5072C20.6826 27.8829 19.8841 28.9473 19.8684 30.4187C19.8684 32.9546 19.8684 35.4905 19.8684 38.0263C19.8684 38.6055 19.9311 39.2004 20.025 39.7795C20.9645 45.4148 26.2254 49.203 31.7995 48.5612C36.4968 48.0133 40.6931 43.9434 41.0219 39.216C41.2098 36.5549 41.1158 33.8782 41.1315 31.2014C41.1315 31.0605 41.0688 30.857 40.9749 30.8101C40.2233 30.4031 39.4718 30.043 38.7045 29.6517C38.3601 30.3248 38.0469 30.9353 37.7181 31.5771C36.4185 30.9353 35.1503 30.3092 33.8663 29.6674C33.5219 30.3405 33.2087 30.9509 32.8799 31.5771C32.191 31.2327 31.5647 30.9196 30.9384 30.6066C30.3121 30.2935 29.6858 29.9804 29.0438 29.6674C28.9342 29.8395 28.8559 29.9804 28.7933 30.1057C28.1513 31.3579 28.026 31.4206 26.6482 31.1701C26.6325 31.1701 26.6169 31.1701 26.5855 31.1701C24.4561 30.7475 22.9686 29.5108 22.0761 27.5072H22.0605ZM34.8997 49.8761C35.0093 50.4709 35.3695 50.5492 35.8862 50.5492C39.8319 50.5335 43.7776 50.5492 47.7233 50.5492C47.9582 50.5492 48.287 50.5492 48.4279 50.7057C49.1482 51.3788 49.8371 52.0989 50.4634 52.7407C50.0093 53.2416 49.5866 53.7112 49.0855 54.2591C48.6941 53.8364 48.3027 53.4451 47.9582 53.0224C47.6607 52.6468 47.3006 52.5528 46.8308 52.5685C43.2296 52.5841 39.644 52.5685 36.0427 52.5685C35.8392 52.5685 35.62 52.5685 35.3382 52.5685V58.282C35.4478 58.282 35.573 58.2977 35.6826 58.2977C39.8945 58.2977 44.1221 58.2977 48.334 58.2977C48.7098 58.2977 49.0855 58.2977 49.4457 58.2194C52.1701 57.7028 54.1586 55.6679 54.5657 52.9755C54.9571 50.377 53.6576 47.8255 51.2306 46.5419C48.4749 45.0861 45.7035 43.646 42.9321 42.2058C42.7912 42.1276 42.6346 42.0806 42.478 42.018C40.0511 46.8549 39.6127 47.3089 34.8528 49.9074L34.8997 49.8761ZM18.5062 41.9554C18.3027 42.065 18.1617 42.1276 18.0208 42.1902C15.2964 43.6147 12.5563 45.0235 9.83189 46.4636C7.10746 47.9037 5.80788 50.737 6.52813 53.5703C7.23272 56.3879 9.69097 58.2507 12.7442 58.2664C16.1732 58.2664 19.6179 58.2664 23.0469 58.2664C23.2505 58.2664 23.454 58.2351 23.6263 58.2351V52.5372C20.2912 52.5372 17.0187 52.5372 13.7463 52.5372C13.5584 52.5372 13.3392 52.6781 13.2139 52.8189C12.7599 53.2729 12.3371 53.7582 11.977 54.1495C11.4133 53.6329 10.9436 53.2103 10.4269 52.7407C11.0688 52.1145 11.6951 51.5354 12.2901 50.9092C12.572 50.6118 12.8695 50.5022 13.2609 50.5179C16.5803 50.5179 19.8997 50.4866 23.2192 50.5492C24.1586 50.5648 24.7693 50.2518 25.2703 49.4691C23.7045 48.7334 22.3267 47.7315 21.1523 46.4479C19.978 45.1487 19.1169 43.646 18.5062 41.9397V41.9554ZM25.6931 58.2977C27.9164 58.2977 30.0459 58.2977 32.1753 58.2977C33.0835 58.2977 33.3966 57.9846 33.3966 57.061C33.3966 55.3235 33.3966 53.586 33.3966 51.8484C33.3966 50.9405 33.0678 50.6118 32.1597 50.6118C30.7661 50.6118 29.3883 50.6274 27.9947 50.6118C27.3214 50.5961 26.8204 50.8153 26.335 51.2849C25.8496 51.7545 25.6148 52.2398 25.6774 52.9129C25.7244 53.539 25.6774 54.1651 25.6774 54.7913V58.3133L25.6931 58.2977ZM17.8799 31.2797C16.4707 31.1231 15.2651 31.3892 14.5135 32.6259C13.8872 33.6434 13.9029 34.7078 14.5605 35.7096C15.3434 36.8993 16.5177 37.1341 17.9739 36.9776C17.8956 36.4766 17.9269 35.9601 17.7233 35.5687C17.3789 34.88 16.6116 35.2087 16.001 35.0522V33.2051H17.8799V31.2797ZM43.1356 36.9619C44.6231 37.228 45.8601 36.7271 46.5177 35.6314C47.1127 34.6452 47.05 33.3772 46.3768 32.438C45.6722 31.4675 44.3726 31.0292 43.1356 31.3423V33.2051H45.0146V34.9739C44.4509 35.1148 43.8559 35.1304 43.4488 35.4122C42.9164 35.7566 43.1043 36.414 43.1513 36.9619H43.1356Z" fill="black"/>
<path d="M15.9697 13.7478C15.9697 12.699 15.954 11.6189 15.9854 10.5545C15.9854 10.3823 16.2672 10.1788 16.4707 10.0692C17.1753 9.70918 17.692 9.23957 17.8486 8.44124C18.0678 7.36115 17.4102 6.32801 16.3925 6.12452C15.2808 5.90537 14.3257 6.54716 14.0908 7.67422C14.0751 7.76814 14.0595 7.86206 14.0282 7.98729H12.1649C11.977 6.68804 13.0574 4.74701 15.0146 4.26175C16.7839 3.82345 18.5845 4.63743 19.4144 6.23409C20.2599 7.86206 19.8684 9.89702 18.4123 11.118C18.0365 11.4311 17.8486 11.7285 17.9269 12.1981C17.9269 12.2294 17.9269 12.2764 17.9269 12.3077C17.9269 13.9826 17.7547 14.1235 15.9697 13.7478Z" fill="black"/>
<path d="M41.1315 7.98721H39.2683C39.0491 5.49829 41.7891 3.51029 44.263 4.32428C45.6722 4.79388 46.5804 5.78006 46.8622 7.22018C47.1597 8.75423 46.7056 10.1004 45.5 11.1023C45.1242 11.4153 44.9833 11.7127 45.0146 12.1824C45.0459 12.6989 45.0146 13.2311 45.0146 13.8103C44.4353 13.8103 43.9029 13.826 43.3862 13.7947C43.261 13.7947 43.0731 13.5755 43.0574 13.4503C43.0261 12.4954 43.0261 11.5406 43.0574 10.5857C43.0574 10.4135 43.3079 10.1787 43.5115 10.0848C44.1378 9.75606 44.6701 9.34906 44.8737 8.64466C45.2182 7.54891 44.6232 6.42185 43.5741 6.14009C42.4937 5.85833 41.4447 6.48447 41.1628 7.61152C41.1315 7.7211 41.1315 7.83067 41.1002 7.97155L41.1315 7.98721Z" fill="black"/>
<path d="M10.1921 23.4685H8.23487C8.23487 22.3571 8.21921 21.277 8.26618 20.197C8.26618 20.0404 8.57934 19.8369 8.78288 19.743C9.55011 19.3517 10.0668 18.8038 10.1608 17.9272C10.2704 16.8941 9.61274 16.0018 8.57934 15.7983C7.62422 15.6105 6.60648 16.2366 6.40293 17.2228C6.30898 17.6611 6.12109 17.755 5.74531 17.7237C5.32255 17.6924 4.89979 17.7237 4.33612 17.7237C4.43007 17.2697 4.46138 16.8784 4.58664 16.5027C5.08769 14.953 6.46556 13.9042 8.07829 13.8416C9.738 13.779 11.2098 14.7026 11.8361 16.2053C12.4624 17.708 12.1023 19.5865 10.8497 20.6509C10.3173 21.1049 10.1608 21.5588 10.2077 22.2006C10.239 22.6076 10.2077 23.0146 10.2077 23.4842L10.1921 23.4685Z" fill="black"/>
<path d="M48.8664 17.6768H47.0345C46.8466 16.1584 48.0679 14.4835 49.7119 13.9826C51.4812 13.4504 53.3758 14.233 54.2526 15.861C55.1451 17.5203 54.7067 19.6648 53.1723 20.8701C52.8434 21.1206 52.7495 21.3711 52.7652 21.7467C52.7965 22.3103 52.7652 22.8738 52.7652 23.453H50.808C50.808 22.3572 50.7923 21.2771 50.8236 20.2127C50.8236 20.0562 51.0898 19.8527 51.262 19.7587C51.904 19.4457 52.405 19.023 52.6242 18.3186C52.9687 17.2229 52.405 16.1271 51.3247 15.8297C50.2756 15.5323 49.2422 16.1428 48.929 17.2229C48.8977 17.3481 48.8664 17.489 48.8351 17.6612L48.8664 17.6768Z" fill="black"/>
<path d="M17.927 16.7063C17.927 17.2229 17.4885 17.6925 16.9718 17.6925C16.4551 17.6925 15.9854 17.2542 15.9854 16.7376C15.9854 16.2211 16.4238 15.7515 16.9405 15.7515C17.4572 15.7515 17.927 16.1898 17.927 16.7063Z" fill="black"/>
<path d="M44.0438 17.6924C43.5271 17.6924 43.0731 17.2228 43.0887 16.7062C43.0887 16.1897 43.5584 15.7357 44.0751 15.7514C44.5918 15.7514 45.0459 16.221 45.0459 16.7375C45.0459 17.2541 44.5762 17.7081 44.0595 17.7081L44.0438 17.6924Z" fill="black"/>
<path d="M52.7652 26.3801C52.7652 26.9124 52.3424 27.3506 51.81 27.3506C51.2777 27.3506 50.8393 26.9437 50.8236 26.4114C50.8236 25.8792 51.2464 25.4409 51.7787 25.4409C52.3267 25.4409 52.7495 25.8479 52.7652 26.3801Z" fill="black"/>
<path d="M36.168 44.2565C35.5887 44.6322 35.072 44.9765 34.5553 45.3209C32.6607 42.065 28.2766 42.1119 26.429 45.3209C25.9123 44.9765 25.3956 44.6322 24.8319 44.2721C26.0062 42.2998 27.6816 41.1101 29.952 40.9379C32.6607 40.7344 34.6806 41.9241 36.1524 44.2565H36.168Z" fill="black"/>
<path d="M39.096 35.6627C38.5167 35.9601 37.953 36.2262 37.405 36.508C36.4029 34.7078 34.3048 34.6609 33.2557 36.508C32.7077 36.2419 32.1597 35.9601 31.6117 35.694C31.9875 34.3634 33.475 33.2677 34.9781 33.1894C36.8413 33.0798 38.3914 34.0034 39.096 35.6783V35.6627Z" fill="black"/>
<path d="M29.4353 35.6627C28.8403 35.9601 28.2923 36.2262 27.7599 36.508C26.5856 34.5357 24.4875 34.8331 23.6107 36.508C23.3288 36.3828 23.0626 36.2419 22.7808 36.1167C22.499 35.9758 22.2328 35.8349 21.9666 35.694C22.2798 34.4574 23.7672 33.3147 25.2077 33.2051C27.1023 33.0486 28.6681 33.9408 29.451 35.6784L29.4353 35.6627Z" fill="black"/>
<path d="M31.4394 38.95H29.5762V37.0715H31.4394V38.95Z" fill="black"/>
</g>
<defs>
<clipPath id="clip0_60_538">
<rect width="60" height="60" fill="white" transform="translate(0.5 0.27002)"/>
</clipPath>
</defs>
</svg>
