<svg width="61" height="61" viewBox="0 0 61 61" fill="none" xmlns="http://www.w3.org/2000/svg">
<g clip-path="url(#clip0_57_522)">
<path d="M35.5326 60.2699C34.9691 60.0196 34.3743 59.8161 33.8577 59.4875C32.9185 58.8771 32.5115 58.1103 32.1515 56.5141H31.494C26.8919 56.5141 22.2741 56.5141 17.672 56.5141C13.3985 56.5141 10.3774 53.4781 10.3618 49.2058C10.3618 45.3404 10.3618 41.475 10.3618 37.6095C10.3618 37.3748 10.3618 37.1401 10.4087 36.9053C10.5183 36.4045 10.9722 36.0759 11.4418 36.1385C11.9584 36.2167 12.2871 36.5141 12.3498 37.0618C12.3654 37.2496 12.3498 37.453 12.3498 37.6408C12.3498 41.4437 12.3498 45.2621 12.3498 49.0649C12.3498 52.4296 14.4317 54.5109 17.7972 54.5109C22.3524 54.5109 26.8919 54.5109 31.4471 54.5109C36.0022 54.5109 31.8697 54.5109 32.1202 54.5109C32.3393 52.6017 32.1045 50.8959 30.4452 49.6596C28.692 48.3607 27.8624 46.608 27.8624 44.417C27.8781 40.1604 27.9563 35.9037 27.8468 31.6471C27.7685 28.2981 31.134 26.3106 33.7638 27.6878C33.8108 27.7191 33.8734 27.7191 33.9986 27.7504C33.9986 27.5156 33.9986 27.3122 33.9986 27.1088C33.9986 23.0712 34.0925 19.018 33.9673 14.9804C33.8577 11.5845 37.2858 9.56572 39.9469 11.0055C39.9782 11.0211 40.0252 11.0055 40.0878 11.0055C40.1661 10.7081 40.213 10.4108 40.307 10.1134C40.9018 8.21986 42.6863 7.07745 44.7056 7.2809C46.5684 7.48434 48.1024 9.08058 48.212 11.0211C48.2746 12.007 48.259 13.0086 48.259 14.0102C48.259 19.6596 48.259 25.2934 48.259 30.9429C48.259 31.1933 48.259 31.4593 48.2277 31.694C48.1337 32.2105 47.805 32.4922 47.3041 32.5078C46.7719 32.5235 46.4118 32.2574 46.2866 31.7253C46.2397 31.4749 46.2397 31.2246 46.2397 30.9742C46.2397 24.5735 46.2397 18.1573 46.2397 11.7566C46.2397 11.3967 46.2397 11.0055 46.1301 10.6612C45.8483 9.72221 44.9404 9.17448 43.9542 9.26838C43.015 9.36227 42.248 10.1447 42.1541 11.1307C42.1384 11.3498 42.1541 11.5532 42.1541 11.7723C42.1541 18.1729 42.1541 24.5892 42.1541 30.9898C42.1541 31.2089 42.1541 31.428 42.1541 31.6314C42.0758 32.1322 41.7784 32.4452 41.2775 32.4922C40.7766 32.5391 40.4009 32.32 40.2444 31.8192C40.1661 31.5845 40.1661 31.3185 40.1661 31.0681C40.1661 25.6064 40.1661 20.1291 40.1661 14.6674C40.1661 13.1181 38.726 12.1009 37.3641 12.68C36.5345 13.0242 36.0805 13.6815 36.0805 14.6048C36.0805 15.7316 36.0805 16.874 36.0805 18.0008C36.0805 24.3232 36.0805 30.6612 36.0805 36.9836C36.0805 37.1557 36.0805 37.3278 36.0805 37.5156C36.0492 38.1103 35.6266 38.5485 35.0943 38.5485C34.5308 38.5485 34.0925 38.1103 34.0925 37.4843C34.0925 35.4656 34.0925 33.4624 34.0925 31.4436C34.0925 30.176 33.2316 29.2684 32.0576 29.2527C30.8992 29.2371 29.9913 30.1134 29.9913 31.3341C29.9756 33.6972 29.9913 36.0602 29.9913 38.4233C29.9913 40.3951 30.0226 42.367 29.9913 44.3388C29.96 45.935 30.5548 47.1714 31.8384 48.1103C32.7933 48.8145 33.482 49.7222 33.889 50.8333C34.0142 51.1776 34.2021 51.2559 34.5308 51.2559C35.5639 51.2402 36.5971 51.2559 37.6302 51.2559C37.9276 51.2559 38.0842 51.1776 38.2564 50.8803C38.4285 50.5986 38.8199 50.4108 39.1486 50.2543C39.3051 50.176 39.5399 50.2386 39.7278 50.2386C44.9561 50.2386 50.2 50.2386 55.4283 50.2386C55.8979 50.2386 56.0701 50.1134 56.2266 49.6596C56.4927 48.9397 56.8371 48.2042 57.338 47.6252C58.2772 46.5454 58.6373 45.356 58.6373 43.9319C58.5903 35.7316 58.606 27.5313 58.6373 19.331C58.6373 18.4077 58.4025 17.6565 57.6041 17.1244C57.1345 16.8114 57.0719 16.2167 57.3537 15.7785C57.6667 15.3091 58.2459 15.1839 58.7468 15.5125C59.6391 16.0759 60.2183 16.8897 60.5 17.9069C60.5313 18.0321 60.5783 18.1573 60.6253 18.2825V45.5908C60.3435 46.6549 59.9835 47.6721 59.2164 48.4859C58.4807 49.2527 58.0268 50.1134 58.0111 51.1933C58.0111 51.6471 57.7763 51.9914 57.3224 52.1948C57.1658 52.2574 57.0093 52.5078 56.9936 52.68C56.9623 53.3842 56.9623 54.0884 56.9936 54.7926C56.9936 54.9648 57.1658 55.2152 57.3067 55.2934C57.8389 55.5282 58.0268 55.9194 57.9955 56.4671C57.9015 58.1886 56.7432 59.6283 55.0839 60.1134C54.943 60.1604 54.8021 60.2073 54.6456 60.2543H35.6579L35.5326 60.2699Z" fill="white"/>
<path d="M0.5 16.6706C0.5 12.4766 0.5 8.28254 0.5 4.07284C0.5 1.72542 1.95578 0.27002 4.28816 0.27002C9.01552 0.27002 13.7429 0.27002 18.4703 0.27002C20.787 0.27002 22.2584 1.70977 22.2584 4.02589C22.2584 12.4766 22.2584 20.9273 22.2584 29.3937C22.2584 31.6785 20.8026 33.1339 18.5172 33.1495C13.7585 33.1495 8.98422 33.1495 4.22554 33.1495C1.94012 33.1339 0.5 31.6628 0.5 29.378C0.5 25.137 0.5 20.9116 0.5 16.6706ZM20.2391 16.7332C20.2391 12.6174 20.2391 8.48598 20.2391 4.37018C20.2391 2.72698 19.7852 2.27315 18.1728 2.27315C13.602 2.27315 9.03118 2.27315 4.46034 2.27315C3.02022 2.27315 2.50365 2.78958 2.50365 4.26063C2.50365 12.5548 2.50365 20.8647 2.50365 29.1589C2.50365 30.63 2.98891 31.1307 4.46034 31.1307C9.06248 31.1307 13.6803 31.1307 18.2824 31.1307C19.7538 31.1307 20.2391 30.6456 20.2391 29.1589C20.2391 25.0118 20.2391 20.8803 20.2391 16.7332Z" fill="white"/>
<path d="M54.3951 22.3984C54.3951 24.9493 54.3951 27.5158 54.3951 30.0666C54.3951 30.317 54.3951 30.5831 54.3012 30.8178C54.129 31.3029 53.7377 31.522 53.2368 31.4438C52.7672 31.3812 52.4541 31.0838 52.3915 30.6144C52.3602 30.3796 52.3758 30.1449 52.3758 29.9101C52.3758 24.9493 52.3758 20.004 52.3758 15.0432C52.3758 14.0259 52.0628 13.2278 51.1236 12.7114C50.5913 12.4141 50.4661 11.8507 50.7322 11.3499C51.014 10.8648 51.5462 10.6926 52.0941 10.9743C53.5968 11.7568 54.3482 13.04 54.3638 14.7145C54.3795 17.2654 54.3638 19.8319 54.3638 22.3828L54.3951 22.3984Z" fill="white"/>
<path d="M11.3322 28.1418C10.9096 28.1418 10.4713 28.1574 10.0486 28.1418C9.40685 28.1105 8.99986 27.688 9.01551 27.1089C9.01551 26.5456 9.4225 26.1543 10.0486 26.1543C10.9409 26.1387 11.8488 26.1387 12.7411 26.1543C13.3359 26.1543 13.7116 26.5456 13.7429 27.0776C13.7742 27.6254 13.3828 28.0636 12.788 28.1418C12.7567 28.1418 12.7097 28.1418 12.6784 28.1418C12.2245 28.1418 11.7862 28.1418 11.3322 28.1418Z" fill="white"/>
</g>
<defs>
<clipPath id="clip0_57_522">
<rect width="60" height="60" fill="white" transform="translate(0.5 0.27002)"/>
</clipPath>
</defs>
</svg>
