<svg width="61" height="60" viewBox="0 0 61 60" fill="none" xmlns="http://www.w3.org/2000/svg">
<g clip-path="url(#clip0_60_552)">
<path d="M-0.00840216 9.25386C0.319326 8.29985 0.75133 7.41923 1.67493 6.8615C4.08819 5.42314 7.06754 7.03762 7.12713 9.8703C7.15692 11.1912 7.2463 12.4828 7.72299 13.7304C9.01901 17.1208 11.477 19.2196 15.1714 20.1883C14.2329 18.7059 14.1286 17.1942 14.2627 15.6384C14.4712 13.2607 16.378 11.2353 18.9104 10.7069C21.1449 10.2372 23.7966 11.4114 24.884 13.4222C26.046 15.5503 26.0162 17.7079 24.9138 19.8654C24.8691 19.9535 24.8393 20.0269 24.7648 20.1883C26.329 19.9388 27.6846 19.3664 28.8912 18.4858C31.6918 16.431 33.0921 13.6717 33.0921 10.2372C33.0921 8.975 33.4347 7.87422 34.4775 7.08165C35.5947 6.23038 36.8312 6.06893 38.1123 6.62666C39.3934 7.18439 40.1382 8.19711 40.2127 9.59144C40.3468 11.8517 39.9893 14.068 39.1998 16.1961C38.9018 17.0034 38.306 17.385 37.6356 17.1501C36.9504 16.93 36.6524 16.2842 36.9504 15.4623C37.5462 13.7891 37.8739 12.0719 37.8591 10.2959C37.8591 10.1638 37.8591 10.0171 37.8591 9.88498C37.8293 9.1658 37.3526 8.6521 36.6971 8.63743C36.0565 8.63743 35.5352 9.12177 35.4905 9.84095C35.4309 10.5601 35.4458 11.294 35.3564 11.9985C34.5818 17.8987 29.5616 22.4486 23.5284 22.6541C20.9364 22.7421 18.3146 22.8008 15.7374 22.5513C9.61488 21.9349 4.982 16.886 4.74365 10.839C4.74365 10.5455 4.74365 10.2519 4.72875 9.95837C4.69896 9.1658 4.20737 8.62275 3.50722 8.63743C2.83687 8.6521 2.36018 9.18048 2.34528 9.94369C2.30059 12.6002 2.88156 15.0954 4.19247 17.4143C6.12905 20.8194 8.97432 23.1384 12.7581 24.3419C13.8009 24.6795 14.0094 24.973 14.0094 26.0445C14.0094 29.5963 14.0094 33.1482 14.0094 36.7001C14.0094 36.9055 14.0094 37.1257 14.0094 37.3605H22.0238C21.711 36.3625 21.3088 35.4085 21.1598 34.4251C20.9215 32.8693 20.7278 31.2842 20.7278 29.7284C20.7278 27.9672 22.2771 26.6169 24.1094 26.5141C25.8374 26.4261 27.4611 27.659 27.7293 29.3615C27.8783 30.2862 27.8485 31.2255 27.9676 32.1501C28.4294 35.9075 31.8259 39.5181 35.5799 40.2666C35.6096 40.2666 35.6543 40.2666 35.7437 40.2519C35.699 40.1492 35.6692 40.0464 35.6245 39.9584C34.5967 37.7568 34.5222 35.5552 35.8182 33.4711C37.0099 31.5484 38.8869 30.6237 41.1661 30.8439C43.5347 31.0787 45.2478 32.3556 46.0373 34.5865C46.7375 36.5533 46.5438 38.5053 45.4564 40.3987C47.6313 40.0024 49.4338 39.0631 50.9235 37.5513C52.86 35.5846 53.8283 33.2069 53.8134 30.4623C53.8134 29.2734 54.0965 28.2167 55.035 27.4094C56.9715 25.7216 59.9807 26.5288 60.7851 28.9505C60.8447 29.1267 60.9192 29.3175 60.9788 29.4936V31.9593C60.9341 32.1648 60.8745 32.3703 60.8596 32.5758C60.5319 35.1883 59.6678 37.6247 58.1931 39.8263C56.0777 43.0112 53.1878 45.2862 49.5381 46.5777C49.1508 46.7098 49.0316 46.9006 49.0465 47.2822C49.0763 48.0748 49.0465 48.882 49.0465 49.6893C49.0465 51.1717 49.0465 52.6541 49.0465 54.1364C49.0465 55.0758 48.4804 55.6188 47.676 55.5014C47.0354 55.4134 46.6779 54.9437 46.663 54.1364C46.663 51.5386 46.663 48.9408 46.663 46.3429C46.663 45.2128 46.8567 44.9486 47.9441 44.6257C51.8024 43.4662 54.737 41.1472 56.7183 37.6834C58.0739 35.3351 58.6549 32.7959 58.5953 30.0954C58.5804 29.2147 57.8802 28.6864 57.0907 28.8918C56.5544 29.0239 56.2863 29.4936 56.2118 30.1981C56.0777 31.4603 56.0777 32.7666 55.7053 33.9554C54.2007 38.7548 50.8937 41.793 45.8586 42.659C42.6409 43.2167 39.3189 43.0846 36.0565 42.703C31.3194 42.1599 27.0887 38.4319 25.9417 33.8674C25.6288 32.6492 25.5991 31.3723 25.465 30.11C25.3756 29.3321 24.9436 28.8478 24.2583 28.8478C23.5582 28.8478 23.1113 29.3468 23.0815 30.1247C23.0368 32.0034 23.305 33.8233 23.9902 35.5846C25.7331 40.0464 28.921 43.0406 33.539 44.567C34.5371 44.9046 34.7456 45.1834 34.7605 46.2255C34.7605 50.2617 34.7605 54.3126 34.7605 58.3488C34.7605 59.0826 34.552 59.6404 33.8071 59.9339H33.2113C32.526 59.5963 32.3473 59.0239 32.3473 58.2901C32.3771 54.5768 32.3473 50.8781 32.3622 47.1648C32.3622 46.7685 32.2281 46.6071 31.8706 46.4456C30.7533 45.9319 29.6659 45.3889 28.5933 44.8018C28.0123 44.4936 27.5058 44.068 26.8653 43.6276C26.8653 43.9359 26.8653 44.1413 26.8653 44.3468C26.8653 49.0141 26.8653 53.6815 26.8653 58.3341C26.8653 59.068 26.6567 59.6257 25.9268 59.9192H25.3309C24.6457 59.5817 24.4669 59.0093 24.4669 58.2754C24.4818 53.021 24.4669 47.7666 24.4967 42.5122C24.4967 41.6022 24.3328 40.8537 23.737 40.1492C23.4688 39.8263 23.2305 39.6795 22.7985 39.6942C20.5491 39.7089 18.3146 39.6942 16.0652 39.6942C15.8715 39.6942 15.6778 39.7089 15.4097 39.7235C15.4097 39.9877 15.4097 40.2079 15.4097 40.4427C15.4097 46.4016 15.4097 52.3605 15.4097 58.3194C15.4097 59.0533 15.2011 59.611 14.4712 59.9046H13.8753C13.1901 59.567 13.0113 58.9946 13.0113 58.2607C13.0262 52.3312 13.0113 46.3869 13.0113 40.4574C13.0113 40.2226 13.0113 40.0024 13.0113 39.7822C11.6557 39.3126 11.5961 39.2245 11.5961 37.8302C11.5961 35.1002 11.5961 32.3703 11.5961 29.6257C11.5961 28.5543 11.5961 27.4828 11.5961 26.3967C11.328 26.294 11.0897 26.2059 10.8513 26.1032C5.74173 23.9897 2.30059 20.3498 0.647053 15.1394C0.304429 14.0239 0.155462 12.8644 -0.0828857 11.7196C-0.0828857 10.8537 -0.0828857 10.0024 -0.0828857 9.13645L-0.00840216 9.25386ZM37.3079 36.8468C37.3377 37.1404 37.3526 37.4339 37.3973 37.7128C37.6803 39.973 40.168 41.2646 42.2387 40.2079C44.1604 39.2245 44.7413 36.1864 43.341 34.4545C42.4472 33.339 41.032 32.9134 39.6616 33.3537C38.1719 33.8233 37.3377 35.0709 37.3079 36.8468ZM23.3645 16.6658C23.3348 16.3136 23.3199 15.9613 23.2454 15.6237C22.9921 14.3321 21.9494 13.3047 20.6384 13.0259C19.3275 12.7617 17.8975 13.3341 17.1675 14.4349C16.5418 15.3742 16.5418 16.4163 16.6461 17.4877C16.8249 19.249 18.5678 20.5846 20.3405 20.3498C22.1877 20.1002 23.3199 18.7059 23.3496 16.6658H23.3645Z" fill="black"/>
<path d="M61.0085 15.3449C60.4275 16.1375 58.6548 16.4898 57.761 15.9907C57.329 15.7412 57.1354 15.3596 57.1801 14.8753C57.2247 14.3763 57.5078 13.98 57.9845 13.9213C58.6995 13.8332 59.4444 13.8185 60.1445 13.9213C60.4573 13.9653 60.7255 14.3909 61.0085 14.6404V15.3449Z" fill="black"/>
<path d="M47.5419 60.0074C47.4376 59.934 47.3184 59.8606 47.2141 59.7726C46.7672 59.4497 46.6034 59.0094 46.7672 58.481C46.9311 57.9673 47.3333 57.6884 47.8845 57.6591C48.4059 57.6297 48.8677 58.0113 49.0166 58.525C49.1656 59.0681 48.9571 59.479 48.5102 59.7872C48.391 59.8606 48.2718 59.9193 48.1526 59.9927H47.5568L47.5419 60.0074Z" fill="black"/>
<path d="M27.193 26.8665C26.5674 26.8665 26.1056 26.4702 25.9864 25.9418C25.8821 25.4134 26.1353 24.8851 26.6865 24.6649C27.3867 24.386 28.1315 24.2246 28.8019 23.887C29.8893 23.344 30.9321 22.6982 31.9898 22.0817C32.1983 21.9643 32.3771 21.8029 32.5856 21.6855C33.1368 21.3772 33.7774 21.4947 34.1349 21.9643C34.4924 22.4193 34.4477 23.0798 33.9859 23.5054C33.6135 23.843 33.1815 24.1365 32.7644 24.4301C31.1704 25.5309 29.4275 26.2794 27.5654 26.8224C27.4314 26.8665 27.2973 26.8665 27.2079 26.8812L27.193 26.8665Z" fill="black"/>
<path d="M22.6644 6.53875C22.3664 6.53875 22.0685 6.5681 21.7706 6.53875C21.1449 6.45068 20.7129 5.96634 20.7278 5.37925C20.7278 4.80685 21.1598 4.29315 21.7855 4.23444C22.3366 4.19041 22.9027 4.19041 23.4539 4.23444C24.1242 4.27847 24.5562 4.77749 24.5562 5.39393C24.5562 6.01037 24.1093 6.48004 23.439 6.53875C23.1857 6.5681 22.9176 6.53875 22.6644 6.53875Z" fill="black"/>
<path d="M27.4164 1.90057C27.3867 2.23815 27.3867 2.60508 27.2973 2.92797C27.1632 3.50038 26.6865 3.8086 26.1055 3.77924C25.5693 3.74989 25.0926 3.39764 25.033 2.85459C24.9734 2.23815 24.9734 1.60703 25.033 0.990594C25.0777 0.447541 25.599 0.0365822 26.1353 0.0219051C26.6716 -0.00744916 27.1781 0.359478 27.2973 0.917208C27.3718 1.2401 27.3718 1.57768 27.4015 1.91525L27.4164 1.90057Z" fill="black"/>
<path d="M25.0329 8.85758C25.0329 8.56404 25.0031 8.2705 25.0329 7.97696C25.1074 7.40455 25.5692 7.02295 26.1204 7.00827C26.7014 6.97891 27.2227 7.28713 27.2823 7.85954C27.3717 8.52001 27.3568 9.22451 27.2823 9.88498C27.2227 10.4427 26.6567 10.795 26.1204 10.7656C25.5841 10.7363 25.0925 10.3253 25.018 9.78224C24.9733 9.47402 25.018 9.1658 25.018 8.84291L25.0329 8.85758Z" fill="black"/>
<path d="M56.7034 11.5581C56.7034 11.837 56.7331 12.1011 56.7034 12.38C56.614 13.0111 56.1373 13.4074 55.5265 13.3927C54.9455 13.3927 54.4539 13.0111 54.3944 12.4094C54.3348 11.8076 54.3348 11.2058 54.3944 10.6041C54.4539 10.0317 54.9902 9.62071 55.5563 9.63539C56.1224 9.63539 56.614 10.0464 56.7034 10.6334C56.748 10.9417 56.7034 11.2499 56.7034 11.5728V11.5581Z" fill="black"/>
<path d="M51.9364 16.1962C51.6087 16.1669 51.2661 16.1816 50.9384 16.1082C50.4021 15.9908 50.0446 15.5064 50.0446 15.0074C50.0446 14.4937 50.4021 13.9653 50.9384 13.9066C51.6236 13.8332 52.3238 13.8332 53.009 13.9066C53.5602 13.9653 53.8879 14.4643 53.8879 15.0074C53.8879 15.5504 53.5602 15.9908 53.009 16.1082C52.6664 16.1816 52.3089 16.1669 51.9364 16.1962Z" fill="black"/>
<path d="M54.3646 18.4712C54.3646 18.1776 54.3348 17.8841 54.3646 17.5905C54.454 16.9888 54.9307 16.6072 55.5116 16.6072C56.1075 16.6072 56.5991 16.9594 56.6736 17.5612C56.7332 18.163 56.7332 18.7647 56.6736 19.3665C56.614 19.9536 56.0926 20.3645 55.5414 20.3645C54.9605 20.3645 54.454 19.9389 54.3646 19.3371C54.3199 19.0436 54.3646 18.75 54.3646 18.4565V18.4712Z" fill="black"/>
<path d="M29.6509 6.58272C29.3828 6.56804 29.055 6.58272 28.7422 6.50933C28.1761 6.39192 27.8037 5.92225 27.8335 5.37919C27.8633 4.80679 28.1612 4.36648 28.7273 4.29309C29.3828 4.20503 30.068 4.2197 30.7384 4.29309C31.3044 4.3518 31.6769 4.89485 31.662 5.42323C31.662 5.9516 31.2598 6.43595 30.6937 6.52401C30.366 6.58272 30.0233 6.56804 29.6509 6.58272Z" fill="black"/>
<path d="M37.3079 19.6012C37.2781 20.2763 36.7418 20.7753 36.0714 20.746C35.4309 20.7166 34.9244 20.1736 34.9393 19.5425C34.9691 18.8967 35.55 18.3683 36.1906 18.3977C36.8312 18.427 37.3228 18.9407 37.293 19.6012H37.3079Z" fill="black"/>
</g>
<defs>
<clipPath id="clip0_60_552">
<rect width="61.0169" height="60" fill="white" transform="translate(-0.00842285 0.00732422)"/>
</clipPath>
</defs>
</svg>
