<svg width="65" height="66" viewBox="0 0 65 66" fill="none" xmlns="http://www.w3.org/2000/svg">
<g clip-path="url(#clip0_60_746)">
<path d="M32.4389 65.9763C24.1414 65.9763 15.8264 65.9763 7.52889 65.9763C4.36711 65.9763 2.00887 64.6313 0.681268 61.749C0.244558 60.7882 0.0349368 59.6528 0.0349368 58.5872C0 45.3811 0 32.1749 0 18.9513C0 14.5668 3.09191 11.5447 7.47648 11.5273C10.5509 11.5273 13.6254 11.5273 16.6998 11.5273C17.1365 11.5273 17.3461 11.405 17.5208 11.0032C20.3682 4.29533 26.9363 0.277596 34.1508 1.08114C40.387 1.77988 44.824 5.15129 47.3918 10.8809C47.6189 11.37 47.846 11.5447 48.3875 11.5447C51.462 11.5098 54.5364 11.5273 57.6109 11.5447C61.2792 11.5622 64.1615 13.8855 64.8428 17.3967C64.9476 17.9731 64.9651 18.567 64.9651 19.161C64.9651 32.2448 64.9651 45.3287 64.9651 58.395C64.9651 62.2905 62.6767 65.1903 59.0782 65.8541C58.4843 65.9589 57.8554 65.9763 57.2615 65.9763C48.9814 65.9763 40.7014 65.9763 32.4214 65.9763H32.4389ZM16.6649 13.5012C16.3854 13.5012 16.1758 13.5012 15.9661 13.5012C13.1537 13.5012 10.3413 13.5012 7.52889 13.5012C4.17495 13.5012 1.9914 15.6673 1.9914 19.0037C1.9914 32.1749 1.9914 45.3287 1.9914 58.4998C1.9914 61.8188 4.15748 63.9849 7.47648 63.9849C24.1763 63.9849 40.8586 63.9849 57.5584 63.9849C60.8425 63.9849 63.0261 61.8363 63.0261 58.5523C63.0261 45.3461 63.0261 32.14 63.0261 18.9164C63.0261 15.6498 60.8076 13.4837 57.541 13.4837C54.6936 13.4837 51.8288 13.4837 48.9815 13.4837C48.7718 13.4837 48.5797 13.5187 48.3526 13.5187C50.6759 23.6503 42.85 33.2405 32.6659 33.3453C22.2373 33.4501 14.2368 23.5805 16.6823 13.4663L16.6649 13.5012ZM32.5437 2.95026C24.8052 2.88039 18.3244 9.2389 18.2545 16.9774C18.1846 24.8906 24.4733 31.319 32.3515 31.3889C40.2123 31.4587 46.6582 25.1526 46.728 17.3442C46.7979 9.43105 40.4743 3.02014 32.5437 2.96773V2.95026Z" fill="#1F1F1F"/>
<path d="M32.5087 61.0677C25.0497 61.0677 17.6082 61.0677 10.1492 61.0677C6.91749 61.0677 4.90863 59.0763 4.90863 55.8621C4.90863 44.2805 4.90863 32.7164 4.90863 21.1349C4.90863 18.5146 6.69041 16.5756 9.13598 16.4883C11.2497 16.4184 13.1363 17.8508 13.5206 19.947C14.0795 23.0215 15.1451 25.8513 16.9793 28.3843C21.4687 34.603 29.2596 37.5203 36.7885 35.8258C44.2475 34.1314 50.047 28.0524 51.3222 20.4711C51.8637 17.2743 54.5888 15.9293 56.9296 16.5931C58.7114 17.0997 59.9866 18.7242 60.0739 20.5933C60.0739 20.803 60.0739 21.0301 60.0739 21.2397C60.0739 32.7514 60.0739 44.2631 60.0739 55.7748C60.0739 59.0938 58.1174 61.0502 54.7984 61.0502C47.3744 61.0502 39.9328 61.0502 32.5087 61.0502V61.0677ZM32.4389 59.0938C39.8979 59.0938 47.3394 59.0938 54.7984 59.0938C56.9995 59.0938 58.1 57.9932 58.1 55.8097C58.1 49.1018 58.1 42.3765 58.1 35.6686C58.1 30.8473 58.1 26.026 58.1 21.2222C58.1 20.5235 57.9952 19.8771 57.5061 19.3356C56.8422 18.5845 56.0038 18.2875 55.0255 18.5845C53.9774 18.8989 53.4534 19.6501 53.2612 20.7156C51.3222 31.843 41.1207 39.4942 29.9758 38.0792C22.3945 37.1185 16.892 33.0658 13.4332 26.2706C12.4725 24.4015 11.9659 22.3751 11.5641 20.3139C11.3545 19.2483 10.4286 18.5321 9.38054 18.4797C8.36737 18.4273 7.35421 19.0736 7.03977 20.0518C6.9175 20.4536 6.86509 20.9078 6.86509 21.3445C6.86509 32.8562 6.86509 44.3679 6.86509 55.8796C6.86509 58.0282 7.9656 59.1462 10.1317 59.1462C17.5558 59.1462 24.9973 59.1462 32.4214 59.1462L32.4389 59.0938Z" fill="#1F1F1F"/>
<path d="M29.7313 17.449C29.7313 15.3703 31.3908 14.0427 33.1376 14.4794C33.5568 14.5842 33.8014 14.4794 34.0809 14.1999C34.7622 13.4662 35.4784 12.7675 36.1946 12.0688C36.7361 11.5272 37.2951 11.4923 37.7318 11.9465C38.1336 12.3657 38.0986 12.9422 37.592 13.4488C36.8933 14.165 36.1946 14.8812 35.4609 15.5624C35.1639 15.8419 35.0591 16.0865 35.1639 16.5232C35.426 17.6586 35.1115 18.6543 34.1682 19.3706C33.2773 20.0518 32.2816 20.1566 31.2859 19.6675C30.2553 19.1784 29.7313 18.3224 29.7138 17.4316L29.7313 17.449ZM33.2948 17.2743C33.2948 16.7503 32.9105 16.331 32.4738 16.366C32.0021 16.4009 31.7052 16.6629 31.6877 17.1521C31.6702 17.6237 32.0371 18.008 32.4913 17.9731C32.9629 17.9381 33.2424 17.6761 33.2773 17.2569L33.2948 17.2743Z" fill="#1F1F1F"/>
<path d="M33.4695 6.72344C33.4695 7.10775 33.487 7.50952 33.4695 7.89383C33.4346 8.47028 33.0852 8.80218 32.5087 8.85459C32.0022 8.88953 31.548 8.48775 31.5305 7.92876C31.4956 7.10775 31.4956 6.28673 31.5305 5.46572C31.5654 4.87179 31.9672 4.53989 32.5087 4.55736C33.1027 4.57483 33.4171 4.92419 33.4695 5.50065C33.5044 5.90243 33.4695 6.32167 33.4695 6.74091V6.72344Z" fill="#1F1F1F"/>
<path d="M25.4515 12.3483C25.434 13.2392 24.7178 13.7283 24.054 13.3964C23.2854 13.0121 22.5343 12.5754 21.8006 12.1037C21.3464 11.8067 21.2591 11.3351 21.5386 10.846C21.7831 10.3918 22.3421 10.1996 22.8312 10.4617C23.5824 10.8634 24.316 11.2652 25.0148 11.7369C25.2593 11.8941 25.3641 12.226 25.4515 12.3657V12.3483Z" fill="#1F1F1F"/>
<path d="M43.0073 16.2088C43.3916 16.2088 43.7933 16.2088 44.1776 16.2088C44.7366 16.2437 45.1559 16.628 45.1559 17.1521C45.1559 17.6936 44.8414 18.0954 44.2999 18.1303C43.409 18.1827 42.5181 18.1827 41.6273 18.1303C41.0857 18.0954 40.7713 17.6761 40.7888 17.1346C40.8062 16.5931 41.1381 16.2437 41.6971 16.2088C42.1338 16.1738 42.5705 16.2088 43.0073 16.2088Z" fill="#1F1F1F"/>
<path d="M21.9927 18.1653C21.6259 18.1653 21.2591 18.1653 20.8922 18.1653C20.2634 18.1303 19.8267 17.7111 19.8441 17.1521C19.8616 16.6106 20.2808 16.2263 20.8922 16.2088C21.6608 16.2088 22.412 16.2088 23.1806 16.2088C23.792 16.2088 24.2112 16.6106 24.2287 17.1521C24.2462 17.7111 23.8269 18.1478 23.1806 18.1653C22.7963 18.1827 22.3945 18.1653 22.0102 18.1653H21.9927Z" fill="#1F1F1F"/>
<path d="M43.6012 11.5098C43.4789 11.667 43.3217 12.0164 43.0422 12.1911C42.4133 12.6103 41.7495 12.9771 41.0683 13.3265C40.4918 13.6409 39.9328 13.4663 39.6708 12.9771C39.4088 12.488 39.566 11.964 40.1075 11.6495C40.7713 11.2478 41.4526 10.846 42.1338 10.4792C42.8151 10.1298 43.5837 10.5665 43.6012 11.5098Z" fill="#1F1F1F"/>
<path d="M40.3521 20.7156C40.7014 20.8379 40.8936 20.8903 41.0508 20.9777C41.7146 21.3445 42.3784 21.7113 43.0247 22.1131C43.5662 22.445 43.706 22.9691 43.444 23.4582C43.1645 23.9648 42.6055 24.122 42.029 23.825C41.3478 23.4582 40.6665 23.0389 40.0027 22.6372C39.5834 22.3751 39.3738 21.9559 39.5834 21.5192C39.7407 21.1873 40.09 20.9602 40.3346 20.7156H40.3521Z" fill="#1F1F1F"/>
<path d="M27.6875 10.1123C27.5477 10.0075 27.2158 9.86773 27.0411 9.6057C26.6044 8.9419 26.2026 8.22569 25.8358 7.52696C25.5563 7.0029 25.7135 6.49632 26.1677 6.21683C26.6044 5.9548 27.1983 6.04214 27.4778 6.51379C27.932 7.22999 28.3687 7.96367 28.7356 8.71481C29.0675 9.37861 28.5958 10.0948 27.6875 10.1123Z" fill="#1F1F1F"/>
<path d="M39.3738 6.96798C39.2515 7.29988 39.2166 7.47457 39.1467 7.61431C38.7799 8.27811 38.4131 8.94191 38.0113 9.58824C37.6794 10.1298 37.0855 10.2695 36.6138 9.97255C36.1422 9.69306 36.0199 9.15153 36.3168 8.59254C36.6837 7.91128 37.0855 7.23001 37.5047 6.56621C37.7667 6.14697 38.2034 5.97228 38.6401 6.1819C38.9546 6.33912 39.1817 6.72342 39.4088 6.95051L39.3738 6.96798Z" fill="#1F1F1F"/>
<path d="M25.4515 22.0083C25.3467 22.148 25.172 22.4799 24.8925 22.6721C24.2636 23.0913 23.5998 23.4582 22.936 23.8075C22.377 24.1045 21.853 23.9822 21.5735 23.5106C21.2765 23.0214 21.4163 22.4625 21.9753 22.1306C22.6391 21.7288 23.3029 21.327 24.0016 20.9602C24.7003 20.6108 25.4515 21.0475 25.4515 21.9908V22.0083Z" fill="#1F1F1F"/>
</g>
<defs>
<clipPath id="clip0_60_746">
<rect width="65" height="65" fill="white" transform="translate(0 0.976318)"/>
</clipPath>
</defs>
</svg>
